<svg xmlns="http://www.w3.org/2000/svg" viewBox="0 0 128 128" role="img" aria-label="Yum icon"><defs><filter id="d" x="-35%" y="-35%" width="170%" height="170%"><feDropShadow dx="0" dy="10" stdDeviation="6" flood-color="#2b211d" flood-opacity=".18"/><feDropShadow dx="0" dy="1" stdDeviation="1" flood-color="#fffaf4" flood-opacity=".48"/></filter><linearGradient id="cream" x1="18" y1="18" x2="108" y2="114"><stop stop-color="#fff8ef"/><stop offset="1" stop-color="#e4d7c6"/></linearGradient><linearGradient id="teal" x1="18" y1="20" x2="108" y2="112"><stop stop-color="#82a9a1"/><stop offset=".56" stop-color="#4d7f79"/><stop offset="1" stop-color="#244f54"/></linearGradient><linearGradient id="clay" x1="18" y1="18" x2="108" y2="114"><stop stop-color="#e7a28d"/><stop offset=".55" stop-color="#bd7059"/><stop offset="1" stop-color="#76473a"/></linearGradient><linearGradient id="gold" x1="20" y1="16" x2="108" y2="112"><stop stop-color="#efc868"/><stop offset=".58" stop-color="#bd8337"/><stop offset="1" stop-color="#6d4522"/></linearGradient><linearGradient id="ink" x1="18" y1="14" x2="108" y2="116"><stop stop-color="#34333b"/><stop offset="1" stop-color="#090b11"/></linearGradient></defs><g filter="url(#d)"><ellipse cx="64" cy="58" rx="42" ry="21" fill="url(#cream)"/><ellipse cx="64" cy="58" rx="33" ry="14" fill="url(#clay)"/><path d="M24 67h80c-3 24-19 38-40 38S27 91 24 67z" fill="url(#teal)"/><path d="M36 75c15 12 43 13 56-1" fill="none" stroke="#fff8ef" stroke-width="6" stroke-linecap="round" opacity=".7"/><ellipse cx="49" cy="52" rx="10" ry="7" fill="#fff8ef"/><circle cx="53" cy="52" r="4" fill="url(#gold)"/><path d="M65 50c9-6 17-6 25 1" fill="none" stroke="url(#cream)" stroke-width="6" stroke-linecap="round"/><circle cx="91" cy="62" r="5" fill="url(#gold)"/><path d="M43 91h42" stroke="url(#ink)" stroke-width="6" stroke-linecap="round" opacity=".56"/></g></svg>
