<svg xmlns="http://www.w3.org/2000/svg" viewBox="0 0 128 128" role="img" aria-label="Yum icon"><defs><filter id="cast" x="-45%" y="-45%" width="190%" height="190%"><feDropShadow dx="0" dy="7" stdDeviation="5" flood-color="#2a211b" flood-opacity=".24"/><feDropShadow dx="0" dy="1" stdDeviation="1" flood-color="#fff8ef" flood-opacity=".35"/></filter><filter id="soft" x="-25%" y="-25%" width="150%" height="150%"><feDropShadow dx="0" dy="5" stdDeviation="3" flood-color="#2a211b" flood-opacity=".18"/></filter><linearGradient id="light" x1="18" y1="15" x2="108" y2="116" gradientUnits="userSpaceOnUse"><stop stop-color="#fffaf1"/><stop offset="1" stop-color="#e2d4c4"/></linearGradient><linearGradient id="warm" x1="20" y1="14" x2="110" y2="116" gradientUnits="userSpaceOnUse"><stop stop-color="#ecb3a2"/><stop offset=".55" stop-color="#c87963"/><stop offset="1" stop-color="#7e4a3c"/></linearGradient><linearGradient id="rose" x1="19" y1="15" x2="105" y2="116" gradientUnits="userSpaceOnUse"><stop stop-color="#e1a6ad"/><stop offset=".58" stop-color="#b76f80"/><stop offset="1" stop-color="#6f485c"/></linearGradient><linearGradient id="forest" x1="16" y1="16" x2="108" y2="112" gradientUnits="userSpaceOnUse"><stop stop-color="#87aaa0"/><stop offset=".58" stop-color="#557b73"/><stop offset="1" stop-color="#284d51"/></linearGradient><linearGradient id="blue" x1="18" y1="16" x2="108" y2="112" gradientUnits="userSpaceOnUse"><stop stop-color="#7f91b4"/><stop offset=".55" stop-color="#4a6288"/><stop offset="1" stop-color="#1d2d50"/></linearGradient><linearGradient id="gold" x1="22" y1="16" x2="103" y2="112" gradientUnits="userSpaceOnUse"><stop stop-color="#f0c66a"/><stop offset=".52" stop-color="#b77d2f"/><stop offset="1" stop-color="#6d421f"/></linearGradient><linearGradient id="ink" x1="20" y1="16" x2="108" y2="112" gradientUnits="userSpaceOnUse"><stop stop-color="#37313c"/><stop offset="1" stop-color="#090a12"/></linearGradient></defs><g filter="url(#cast)"> <ellipse cx="58" cy="77" rx="45" ry="25" fill="url(#light)"/> <ellipse cx="58" cy="76" rx="34" ry="15" fill="url(#warm)"/> <ellipse cx="48" cy="72" rx="13" ry="8" fill="#79a69d"/><circle cx="72" cy="75" r="8" fill="#fff8ef"/> <path d="M20 84c21 20 60 23 89-5" fill="none" stroke="#d9cbb9" stroke-width="8" stroke-linecap="round"/> <path d="M89 20 63 98" stroke="#241f1b" stroke-width="8" stroke-linecap="round"/><path d="M110 27 76 102" stroke="#604638" stroke-width="8" stroke-linecap="round"/> </g></svg>